<svg width="20" height="21" viewBox="0 0 20 21" fill="none" xmlns="http://www.w3.org/2000/svg">
<path d="M8.56883 17.502C8.27086 17.5336 8.01804 17.5652 7.76522 17.5923C6.45145 17.7232 5.30473 17.3666 4.43792 16.3417C4.16704 16.0212 4.01354 15.6058 3.78329 15.2492C3.42663 14.6894 3.06094 14.134 2.66817 13.5968C2.53273 13.4117 2.29797 13.3033 2.11738 13.1453C2.05869 13.0957 2.04063 13.0009 2 12.9241C2.08126 12.8925 2.15801 12.8383 2.23928 12.8293C3.27765 12.7345 4.00902 13.2131 4.51918 14.0754C5.15575 15.1498 6.07674 15.7368 7.3273 15.7368C7.68847 15.7368 8.04964 15.6149 8.4063 15.5336C8.47402 15.5155 8.55528 15.4117 8.56431 15.3349C8.62752 14.8654 8.68621 14.3959 8.90291 13.967C8.98418 13.809 9.07898 13.66 9.17379 13.4975C8.80811 13.4252 8.45596 13.3711 8.10833 13.2853C6.50563 12.879 5.18283 12.0754 4.41534 10.5494C4.11737 9.95346 3.95033 9.31237 3.92776 8.6442C3.89164 7.61486 3.90519 6.581 4.11286 5.5652C4.26184 4.85188 4.53272 4.18822 5.07448 3.67355C5.19186 3.56068 5.21444 3.46136 5.15123 3.2898C4.84875 2.44556 4.81715 1.58777 5.07448 0.725467C5.12866 0.540365 5.17832 0.355264 5.2325 0.161133C6.46951 0.395896 7.2054 1.23111 7.89614 2.15662C8.60946 1.6284 9.4537 1.58325 10.2754 1.52908C11.2505 1.46587 12.2302 1.47942 13.2009 1.63743C13.7065 1.71869 14.018 1.82253 14.5101 2.11599C14.9345 1.67806 15.3318 1.23562 15.7697 0.833819C16.1173 0.513277 16.5507 0.310117 17.0203 0.201765C17.1512 0.170162 17.2189 0.183706 17.2731 0.328176C17.6388 1.32592 17.693 2.31915 17.2911 3.31689C17.237 3.45233 17.2415 3.54714 17.3544 3.65549C18.0045 4.274 18.3024 5.0731 18.4018 5.9354C18.492 6.7345 18.5417 7.53811 18.5417 8.34172C18.5417 9.48393 18.2031 10.5313 17.4853 11.4298C16.9796 12.0663 16.325 12.5223 15.5846 12.8654C14.8668 13.195 14.1173 13.3846 13.3408 13.4839C13.3228 13.4884 13.3047 13.502 13.2731 13.5155C13.8058 14.2785 13.8916 15.1363 13.8826 16.0257C13.869 17.3214 13.8736 18.6126 13.8826 19.9083C13.8826 20.1115 13.8239 20.1611 13.6252 20.1611C12.0225 20.1521 10.4198 20.1521 8.81713 20.1611C8.61849 20.1611 8.55528 20.0979 8.55528 19.9038C8.56431 19.204 8.5598 18.5042 8.5598 17.8045C8.56883 17.7006 8.56883 17.6103 8.56883 17.502Z" fill="#303030"/>
</svg>
