<svg width="65" height="64" viewBox="0 0 65 64" fill="none" xmlns="http://www.w3.org/2000/svg">
<g clip-path="url(#clip0_12337_2906)">
<path d="M64.1266 32.0001C64.1266 49.375 50.0415 63.4601 32.6666 63.4601C15.2917 63.4601 1.20654 49.375 1.20654 32.0001C1.20654 14.6252 15.2917 0.540039 32.6666 0.540039C50.0415 0.540039 64.1266 14.6252 64.1266 32.0001Z" stroke="white"/>
<g clip-path="url(#clip1_12337_2906)">
<path d="M45.7589 31.5687C46.0525 32.4028 46.6431 32.5478 47.491 32.5375C52.9324 32.4788 57.2635 37.226 56.495 42.6036C55.4831 49.6856 48.3941 52.4814 42.8836 49.3782C42.3811 49.095 42.072 49.0466 41.6143 49.4421C39.0499 51.6629 36.1107 51.9116 32.9989 50.9151C32.3064 50.6941 31.6605 50.271 31.0526 49.8565C30.7038 49.6182 30.5173 49.582 30.1771 49.8565C27.7335 51.8442 25.043 51.9081 22.2714 50.7114C21.6169 50.4299 21.1247 49.7909 20.5151 49.3816C20.2388 49.1969 19.8313 49.0294 19.5291 49.0898C16.0632 49.7857 13.4158 48.5217 11.4282 45.7293C10.4853 44.403 10.1468 42.8643 10.2297 41.2497C10.4283 37.3486 13.1568 34.7013 16.2652 34.071C16.8489 33.9518 17.4568 33.9363 18.0543 33.9121C18.4377 33.8966 18.6397 33.8137 18.5827 33.3647C18.1803 30.1941 19.1008 27.45 21.2646 25.1101C21.2749 25.098 22.8464 23.4834 25.1 22.7563C26.9893 22.2607 28.8837 22.1295 30.7781 22.7132C33.8157 23.6491 35.9329 25.5885 37.1382 28.538C37.228 28.7573 37.5872 29.0785 37.715 29.0353C39.2433 28.5276 40.7595 28.6192 42.2861 28.9973C43.6711 29.5465 44.8419 30.384 45.7554 31.5687H45.7589ZM33.0006 42.7072C33.4582 42.7072 33.9158 42.7003 34.3735 42.7089C34.8898 42.7193 35.1005 42.5431 34.9727 41.9802C34.7137 40.8387 34.5133 39.6834 34.2733 38.5385C34.1852 38.1205 34.218 37.8322 34.5997 37.511C35.5719 36.6924 35.6669 35.3005 34.9036 34.3576C34.0264 33.2749 32.4773 33.1436 31.4913 34.071C30.4828 35.0173 30.4638 36.5387 31.5172 37.4799C31.9005 37.8218 31.9714 38.1016 31.847 38.5713C31.6553 39.2862 31.5638 40.0288 31.4084 40.7541C30.8955 43.1648 30.9456 42.6554 33.0006 42.7055V42.7072Z" stroke="white" stroke-width="0.979151" stroke-miterlimit="10"/>
<path d="M45.1369 30.8583C44.2234 29.6737 43.6743 29.5511 42.291 29.0019C42.2323 26.8882 42.215 24.771 42.1045 22.6608C41.9543 18.0396 39.8923 15.8343 36.7926 14.9692C34.5562 14.3457 32.073 14.3354 30.1336 14.8535C28.317 15.3387 26.7092 17.0518 25.958 18.8564C25.4538 20.067 25.3743 21.4537 25.1049 22.7609C23.6526 23.2617 23.2416 23.4707 22.0742 24.4084C22.1329 22.4345 22.0742 21.5089 22.499 19.3969C23.2641 15.5874 25.4399 12.9936 29.2322 12.0196C32.6756 11.1337 35.9188 11.3668 39.2672 12.6275C42.1459 14.009 43.4601 15.2852 44.4479 18.8443C44.7328 21.0755 45.0247 23.4914 45.0627 25.7519C45.0869 27.2405 45.1542 29.3698 45.1369 30.8583Z" stroke="white" stroke-width="0.979151" stroke-miterlimit="10"/>
<path d="M33.0022 42.7087C30.9455 42.6569 30.8972 43.1663 31.41 40.7556C31.5637 40.0285 31.657 39.2877 31.8487 38.5728C31.9747 38.1031 31.9022 37.8233 31.5188 37.4814C30.4654 36.5402 30.4844 35.0205 31.4929 34.0725C32.479 33.1469 34.028 33.2764 34.9053 34.3591C35.6686 35.302 35.5736 36.6939 34.6013 37.5125C34.2197 37.8337 34.1869 38.122 34.275 38.54C34.515 39.6849 34.7153 40.8402 34.9744 41.9817C35.1021 42.5429 34.8915 42.7208 34.3751 42.7104C33.9175 42.7018 33.4599 42.7087 33.0022 42.7087Z" fill="white"/>
</g>
</g>
<defs>
<clipPath id="clip0_12337_2906">
<rect width="64" height="64" fill="white" transform="translate(0.666626)"/>
</clipPath>
<clipPath id="clip1_12337_2906">
<rect width="47.3429" height="41" fill="white" transform="translate(9.73206 11)"/>
</clipPath>
</defs>
</svg>
