<svg width="65" height="71" viewBox="0 0 65 71" fill="none" xmlns="http://www.w3.org/2000/svg">
<path d="M64.1266 39.0001C64.1266 56.375 50.0415 70.4601 32.6666 70.4601C15.2917 70.4601 1.20654 56.375 1.20654 39.0001C1.20654 21.6252 15.2917 7.54004 32.6666 7.54004C50.0415 7.54004 64.1266 21.6252 64.1266 39.0001Z" stroke="white"/>
<path d="M32.0861 20.5981C32.9737 20.5981 33.6933 19.8785 33.6933 18.9908C33.6933 18.1031 32.9737 17.3835 32.0861 17.3835C31.1984 17.3835 30.4788 18.1031 30.4788 18.9908C30.4788 19.8785 31.1984 20.5981 32.0861 20.5981Z" stroke="white" stroke-width="1.2976" stroke-miterlimit="10"/>
<path d="M30.0573 38.0167C30.8551 38.0167 31.5019 37.3699 31.5019 36.5721C31.5019 35.7742 30.8551 35.1274 30.0573 35.1274C29.2594 35.1274 28.6127 35.7742 28.6127 36.5721C28.6127 37.3699 29.2594 38.0167 30.0573 38.0167Z" fill="white" stroke="white" stroke-width="1.2976" stroke-miterlimit="10"/>
<path d="M37.9974 39.4892C38.9411 39.4892 39.7061 38.7242 39.7061 37.7805C39.7061 36.8368 38.9411 36.0718 37.9974 36.0718C37.0537 36.0718 36.2887 36.8368 36.2887 37.7805C36.2887 38.7242 37.0537 39.4892 37.9974 39.4892Z" fill="white" stroke="white" stroke-width="1.18005" stroke-miterlimit="10"/>
<path d="M19.326 43.6504C21.4876 41.8071 23.0284 41.6077 24.048 41.7844C25.379 42.0152 25.8757 42.8914 28.7124 44.1157C29.8999 44.6281 30.4946 44.8852 31.1032 44.9901C33.2981 45.3696 34.3597 44.2766 38.216 43.0663C40.7152 42.281 41.9919 41.8963 43.3456 42.1919C45.1452 42.5854 46.8015 43.8778 47.6602 45.5725C49.6277 49.4604 46.415 53.5441 46.2611 53.7347C44.8217 55.5064 42.8542 56.2951 40.4319 56.8828C37.8313 57.5141 29.5484 60.1795 22.4513 56.3983C20.134 55.1636 19.0759 53.8589 18.511 52.9757C18.0388 52.2359 16.8407 50.3646 17.1695 47.8461C17.4686 45.5708 18.8363 44.1227 19.326 43.6487V43.6504Z" stroke="white" stroke-width="1.18005" stroke-miterlimit="10"/>
<path d="M22.4493 56.4003L22.5315 42.1938" stroke="white" stroke-width="1.18005" stroke-miterlimit="10"/>
<path d="M28.8872 58.0238L28.7123 44.1182" stroke="white" stroke-width="1.18005" stroke-miterlimit="10"/>
<path d="M35.8586 57.7597L35.6644 43.8943" stroke="white" stroke-width="1.18005" stroke-miterlimit="10"/>
<path d="M42.1755 56.3885L42.0146 42.5161" stroke="white" stroke-width="1.18005" stroke-miterlimit="10"/>
<path d="M27.2328 17.3812C27.2136 21.2096 27.1944 24.7459 27.1751 28.5743C27.0387 28.8664 26.9023 29.1567 26.7676 29.4488C21.8409 34.8442 18.2749 39.4351 15.8666 42.7406C14.7403 44.2849 13.7067 45.7714 13.2432 47.9873C12.4912 51.5813 13.4094 56.4766 17.0331 59.413C18.838 60.8768 20.8545 61.3438 22.1627 61.5117C30.4606 62.0898 42.5656 61.5694 43.3824 61.5117C44.1991 61.454 43.8816 61.4915 44.1991 61.454C49 60.8867 50.895 56.728 51.1371 56.3244C53.4421 52.4803 52.5852 46.5969 48.8058 41.8084C45.3464 37.5725 41.887 33.3366 38.4294 29.099C38.3717 28.8069 38.3122 28.5166 38.2545 28.2245V17.0892C38.648 17.0594 39.0328 17.0804 39.3913 17.0017C39.6711 16.9405 40.6296 16.5505 40.8202 15.6323C40.9496 15.0027 40.5578 13.9271 39.5959 13.8257H26.1258C25.9841 13.8362 25.7655 13.8729 25.5434 14.0006C24.8386 14.4028 24.7896 15.307 24.7861 15.3997C24.7529 16.2812 25.4 16.8426 25.4857 16.916C26.3164 17.383 26.591 17.2842 27.2328 17.3139V17.3812Z" stroke="white" stroke-width="1.18005" stroke-miterlimit="10"/>
<path d="M37.8734 11.3396C40.7286 11.3396 43.0432 9.02501 43.0432 6.1698C43.0432 3.3146 40.7286 1 37.8734 1C35.0182 1 32.7036 3.3146 32.7036 6.1698C32.7036 9.02501 35.0182 11.3396 37.8734 11.3396Z" stroke="white" stroke-width="1.18005" stroke-miterlimit="10"/>
</svg>
