<svg width="64" height="64" viewBox="0 0 64 64" fill="none" xmlns="http://www.w3.org/2000/svg">
<g clip-path="url(#clip0_12337_2887)">
<path d="M63.46 32.0001C63.46 49.375 49.3749 63.4601 32 63.4601C14.6251 63.4601 0.539917 49.375 0.539917 32.0001C0.539917 14.6252 14.6251 0.540039 32 0.540039C49.3749 0.540039 63.46 14.6252 63.46 32.0001Z" stroke="white"/>
<g clip-path="url(#clip1_12337_2887)">
<path d="M50.9481 39.3095L45.2234 35.7136L50.948 32.1181C51.1605 31.9847 51.2895 31.7514 51.2895 31.5005C51.2895 31.2496 51.1605 31.0163 50.948 30.8827L45.2233 27.2867L50.9477 23.691C51.1602 23.5575 51.2892 23.3243 51.2892 23.0734C51.2892 22.8225 51.1602 22.5892 50.9477 22.4558L32.8878 11.1117C32.6507 10.9628 32.3491 10.9628 32.1119 11.1117L14.052 22.4558C13.8395 22.5893 13.7105 22.8225 13.7105 23.0734C13.7105 23.3243 13.8395 23.5576 14.052 23.691L19.7763 27.2866L14.0522 30.8827C13.8397 31.0163 13.7108 31.2495 13.7108 31.5004C13.7108 31.7513 13.8398 31.9846 14.0523 32.118L19.7764 35.7134L14.0523 39.3096C13.8398 39.4431 13.7109 39.6764 13.7109 39.9273C13.7109 40.1782 13.8399 40.4115 14.0524 40.5449L32.1119 51.8883C32.2305 51.9628 32.3651 52 32.4998 52C32.6345 52 32.7692 51.9628 32.8877 51.8883L50.9481 40.5448C51.1606 40.4114 51.2896 40.1781 51.2896 39.9272C51.2896 39.6763 51.1606 39.443 50.9481 39.3095ZM15.8112 23.0734L32.4999 12.5907L49.1885 23.0734L32.4999 33.5561L15.8112 23.0734ZM15.8114 31.5003L21.1474 28.148L32.1119 35.0351C32.2304 35.1096 32.3651 35.1468 32.4998 35.1468C32.6345 35.1468 32.7692 35.1096 32.8877 35.0351L43.852 28.1481L49.1886 31.5003L32.4997 41.9824L15.8114 31.5003ZM32.4997 50.4092L15.8114 39.9271L21.1475 36.5746L32.1118 43.4614C32.2304 43.5359 32.365 43.5731 32.4997 43.5731C32.6344 43.5731 32.7691 43.5359 32.8876 43.4614L43.8521 36.5748L49.1888 39.9271L32.4997 50.4092Z" fill="white"/>
<path d="M28.8501 20.052V20" stroke="white" stroke-width="2.88985" stroke-linecap="round"/>
<path d="M36.6694 20.052V20" stroke="white" stroke-width="2.88985" stroke-linecap="round"/>
<path d="M28 25.8516C29.5064 27.2323 31.238 27.4715 32.0216 27.5591C32.8052 27.6467 35.7022 27.3989 37.4145 26.165" stroke="white" stroke-width="1.44492" stroke-linecap="round"/>
</g>
</g>
<defs>
<clipPath id="clip0_12337_2887">
<rect width="64" height="64" fill="white"/>
</clipPath>
<clipPath id="clip1_12337_2887">
<rect width="41" height="41" fill="white" transform="translate(12 11)"/>
</clipPath>
</defs>
</svg>
